<mxfile host="app.diagrams.net" modified="2025-10-28T00:00:00.000Z" agent="Mozilla/5.0" version="24.7.1" editor="5.1.3" type="device">
  <diagram id="ReBookClassDiagram" name="ReBook Class Diagram">
    <mxGraphModel dx="1200" dy="800" grid="1" gridSize="10" guides="1" tooltips="1" connect="1" arrows="1" fold="1" page="1" pageScale="1" pageWidth="1654" pageHeight="1169">
      <root>
        <mxCell id="0"/>
        <mxCell id="1" parent="0"/>

        <!-- User Model -->
        <mxCell id="user" value="User&#10;- userId: int&#10;- name: String&#10;- email: String&#10;- password: String&#10;- phone: String&#10;- createdAt: Timestamp&#10;&#10;+ getters/setters()" style="rounded=1;whiteSpace=wrap;html=1;fillColor=#dae8fc;strokeColor=#6c8ebf;" vertex="1" parent="1">
          <mxGeometry x="80" y="120" width="200" height="180" as="geometry"/>
        </mxCell>

        <!-- UserDAO -->
        <mxCell id="userdao" value="UserDAO&#10;+ registerUser(...)&#10;+ loginUser(...)" style="rounded=1;whiteSpace=wrap;html=1;fillColor=#fff2cc;strokeColor=#d6b656;" vertex="1" parent="1">
          <mxGeometry x="340" y="100" width="200" height="120" as="geometry"/>
        </mxCell>

        <!-- UserController -->
        <mxCell id="usercontroller" value="UserController&#10;+ registerUser(...)&#10;+ login(...)" style="rounded=1;whiteSpace=wrap;html=1;fillColor=#d5e8d4;strokeColor=#82b366;" vertex="1" parent="1">
          <mxGeometry x="600" y="100" width="200" height="120" as="geometry"/>
        </mxCell>

        <!-- Item Model -->
        <mxCell id="item" value="Item&#10;- id: int&#10;- title: String&#10;- description: String&#10;- conditionStatus: String&#10;- type: String&#10;- imagePath: String&#10;- userId: int&#10;- createdAt: Timestamp&#10;&#10;+ getters/setters()" style="rounded=1;whiteSpace=wrap;html=1;fillColor=#dae8fc;strokeColor=#6c8ebf;" vertex="1" parent="1">
          <mxGeometry x="80" y="380" width="220" height="200" as="geometry"/>
        </mxCell>

        <!-- ItemDAO -->
        <mxCell id="itemdao" value="ItemDAO&#10;+ addItem(...)&#10;+ getAllItems()&#10;+ getItemById()&#10;+ updateItem(...)&#10;+ deleteItem(...)" style="rounded=1;whiteSpace=wrap;html=1;fillColor=#fff2cc;strokeColor=#d6b656;" vertex="1" parent="1">
          <mxGeometry x="340" y="380" width="220" height="160" as="geometry"/>
        </mxCell>

        <!-- ItemController -->
        <mxCell id="itemcontroller" value="ItemController&#10;+ addItem(...)&#10;+ loadItems()&#10;+ searchItems(...)" style="rounded=1;whiteSpace=wrap;html=1;fillColor=#d5e8d4;strokeColor=#82b366;" vertex="1" parent="1">
          <mxGeometry x="600" y="380" width="220" height="120" as="geometry"/>
        </mxCell>

        <!-- MyListingsController -->
        <mxCell id="mylistingscontroller" value="MyListingsController&#10;+ loadItems()&#10;+ searchItems()&#10;+ editSelectedItem()&#10;+ deleteSelectedItem()&#10;+ approveRequest()&#10;+ rejectRequest()" style="rounded=1;whiteSpace=wrap;html=1;fillColor=#d5e8d4;strokeColor=#82b366;" vertex="1" parent="1">
          <mxGeometry x="870" y="380" width="250" height="180" as="geometry"/>
        </mxCell>

        <!-- Utilities -->
        <mxCell id="validator" value="Validator&#10;+ isValidEmail()&#10;+ isValidPassword()&#10;+ isValidPhone()&#10;+ isNotEmpty()&#10;+ isValidTitle()&#10;+ isPositiveInt()" style="rounded=1;whiteSpace=wrap;html=1;fillColor=#f8cecc;strokeColor=#b85450;" vertex="1" parent="1">
          <mxGeometry x="80" y="640" width="220" height="150" as="geometry"/>
        </mxCell>

        <mxCell id="passwordutil" value="PasswordUtil&#10;+ hashPassword()&#10;+ checkPassword()" style="rounded=1;whiteSpace=wrap;html=1;fillColor=#f8cecc;strokeColor=#b85450;" vertex="1" parent="1">
          <mxGeometry x="340" y="640" width="200" height="100" as="geometry"/>
        </mxCell>

        <mxCell id="dbconnection" value="DBConnection&#10;+ getConnection()" style="rounded=1;whiteSpace=wrap;html=1;fillColor=#f8cecc;strokeColor=#b85450;" vertex="1" parent="1">
          <mxGeometry x="600" y="640" width="200" height="80" as="geometry"/>
        </mxCell>

        <!-- GUI Components -->
        <mxCell id="gui" value="GUI Panels&#10;- LoginPanel&#10;- RegisterPanel&#10;- AddItemPanel&#10;- MyListingsPanel&#10;- Dashboard" style="rounded=1;whiteSpace=wrap;html=1;fillColor=#e1d5e7;strokeColor=#9673a6;" vertex="1" parent="1">
          <mxGeometry x="870" y="120" width="220" height="180" as="geometry"/>
        </mxCell>

        <!-- Relationships -->
        <mxCell id="edge1" edge="1" source="usercontroller" target="userdao" style="endArrow=block;endFill=1;strokeWidth=2;" parent="1"><mxGeometry relative="1" as="geometry"/></mxCell>
        <mxCell id="edge2" edge="1" source="userdao" target="user" style="endArrow=open;dashed=1;" parent="1"><mxGeometry relative="1" as="geometry"/></mxCell>
        <mxCell id="edge3" edge="1" source="itemcontroller" target="itemdao" style="endArrow=block;endFill=1;strokeWidth=2;" parent="1"><mxGeometry relative="1" as="geometry"/></mxCell>
        <mxCell id="edge4" edge="1" source="itemdao" target="item" style="endArrow=open;dashed=1;" parent="1"><mxGeometry relative="1" as="geometry"/></mxCell>
        <mxCell id="edge5" edge="1" source="mylistingscontroller" target="itemdao" style="endArrow=block;endFill=1;strokeWidth=2;" parent="1"><mxGeometry relative="1" as="geometry"/></mxCell>
        <mxCell id="edge6" edge="1" source="gui" target="usercontroller" style="endArrow=block;endFill=1;strokeWidth=2;" parent="1"><mxGeometry relative="1" as="geometry"/></mxCell>
        <mxCell id="edge7" edge="1" source="gui" target="itemcontroller" style="endArrow=block;endFill=1;strokeWidth=2;" parent="1"><mxGeometry relative="1" as="geometry"/></mxCell>
        <mxCell id="edge8" edge="1" source="validator" target="usercontroller" style="endArrow=open;dashed=1;" parent="1"><mxGeometry relative="1" as="geometry"/></mxCell>
        <mxCell id="edge9" edge="1" source="dbconnection" target="itemdao" style="endArrow=open;dashed=1;" parent="1"><mxGeometry relative="1" as="geometry"/></mxCell>
        <mxCell id="edge10" edge="1" source="dbconnection" target="userdao" style="endArrow=open;dashed=1;" parent="1"><mxGeometry relative="1" as="geometry"/></mxCell>
      </root>
    </mxGraphModel>
  </diagram>
</mxfile>
